<svg xmlns="http://www.w3.org/2000/svg" viewBox="0 0 22.81 158.1"><defs><style>.cls-1{fill:none;stroke:#940043;stroke-miterlimit:10;stroke-width:3px;}</style></defs><title>Asset 2</title><g id="Layer_2" data-name="Layer 2"><g id="Layer_1-2" data-name="Layer 1"><path class="cls-1" d="M9.5,0c0,7.18-8,7.18-8,14.37s8,7.19,8,14.37-8,7.19-8,14.37,8,7.19,8,14.37-8,7.19-8,14.38,8,7.18,8,14.37-8,7.18-8,14.37,8,7.18,8,14.37-8,7.19-8,14.37,8,7.19,8,14.38-8,7.19-8,14.38"/><path class="cls-1" d="M21.31,0c0,7.18-8,7.18-8,14.37s8,7.19,8,14.37-8,7.19-8,14.37,8,7.19,8,14.37-8,7.19-8,14.38,8,7.18,8,14.37-8,7.18-8,14.37,8,7.18,8,14.37-8,7.19-8,14.37,8,7.19,8,14.38-8,7.19-8,14.38"/></g></g></svg>